<mxfile host="app.diagrams.net" modified="2023-06-28T17:36:08.887Z" agent="Mozilla/5.0 (X11; Linux x86_64; rv:109.0) Gecko/20100101 Firefox/114.0" etag="h7ZSLiArL3fgBwH_XsFJ" version="21.5.1" type="github">
  <diagram name="Page-1" id="pg8X8tQUmm8SMMwMkX9M">
    <mxGraphModel dx="2074" dy="1109" grid="1" gridSize="10" guides="1" tooltips="1" connect="1" arrows="1" fold="1" page="1" pageScale="1" pageWidth="850" pageHeight="1100" math="0" shadow="0">
      <root>
        <mxCell id="0" />
        <mxCell id="1" parent="0" />
        <mxCell id="GQg6v6xFDtIEAacWqSrP-10" style="edgeStyle=orthogonalEdgeStyle;rounded=0;orthogonalLoop=1;jettySize=auto;html=1;entryX=0;entryY=0.5;entryDx=0;entryDy=0;entryPerimeter=0;" edge="1" parent="1" source="GQg6v6xFDtIEAacWqSrP-1" target="GQg6v6xFDtIEAacWqSrP-8">
          <mxGeometry relative="1" as="geometry">
            <Array as="points">
              <mxPoint x="330" y="450" />
            </Array>
          </mxGeometry>
        </mxCell>
        <mxCell id="GQg6v6xFDtIEAacWqSrP-12" style="edgeStyle=orthogonalEdgeStyle;rounded=0;orthogonalLoop=1;jettySize=auto;html=1;entryX=0;entryY=0.5;entryDx=0;entryDy=0;entryPerimeter=0;" edge="1" parent="1" source="GQg6v6xFDtIEAacWqSrP-1" target="GQg6v6xFDtIEAacWqSrP-3">
          <mxGeometry relative="1" as="geometry" />
        </mxCell>
        <mxCell id="GQg6v6xFDtIEAacWqSrP-15" style="edgeStyle=orthogonalEdgeStyle;rounded=0;orthogonalLoop=1;jettySize=auto;html=1;entryX=0.5;entryY=1;entryDx=0;entryDy=0;" edge="1" parent="1" source="GQg6v6xFDtIEAacWqSrP-1" target="GQg6v6xFDtIEAacWqSrP-7">
          <mxGeometry relative="1" as="geometry" />
        </mxCell>
        <mxCell id="GQg6v6xFDtIEAacWqSrP-1" value="&lt;div&gt;usr-srv&lt;/div&gt;" style="rounded=0;whiteSpace=wrap;html=1;" vertex="1" parent="1">
          <mxGeometry x="260" y="310" width="120" height="60" as="geometry" />
        </mxCell>
        <mxCell id="GQg6v6xFDtIEAacWqSrP-5" value="" style="edgeStyle=orthogonalEdgeStyle;rounded=0;orthogonalLoop=1;jettySize=auto;html=1;" edge="1" parent="1" source="GQg6v6xFDtIEAacWqSrP-3" target="GQg6v6xFDtIEAacWqSrP-1">
          <mxGeometry relative="1" as="geometry" />
        </mxCell>
        <mxCell id="GQg6v6xFDtIEAacWqSrP-3" value="keycloak" style="shape=cylinder3;whiteSpace=wrap;html=1;boundedLbl=1;backgroundOutline=1;size=15;" vertex="1" parent="1">
          <mxGeometry x="440" y="300" width="60" height="80" as="geometry" />
        </mxCell>
        <mxCell id="GQg6v6xFDtIEAacWqSrP-14" style="edgeStyle=orthogonalEdgeStyle;rounded=0;orthogonalLoop=1;jettySize=auto;html=1;" edge="1" parent="1" source="GQg6v6xFDtIEAacWqSrP-7" target="GQg6v6xFDtIEAacWqSrP-1">
          <mxGeometry relative="1" as="geometry" />
        </mxCell>
        <mxCell id="GQg6v6xFDtIEAacWqSrP-19" value="gRPC" style="edgeLabel;html=1;align=center;verticalAlign=middle;resizable=0;points=[];" vertex="1" connectable="0" parent="GQg6v6xFDtIEAacWqSrP-14">
          <mxGeometry x="-0.025" relative="1" as="geometry">
            <mxPoint as="offset" />
          </mxGeometry>
        </mxCell>
        <mxCell id="GQg6v6xFDtIEAacWqSrP-20" style="edgeStyle=orthogonalEdgeStyle;rounded=0;orthogonalLoop=1;jettySize=auto;html=1;" edge="1" parent="1" source="GQg6v6xFDtIEAacWqSrP-7" target="GQg6v6xFDtIEAacWqSrP-16">
          <mxGeometry relative="1" as="geometry" />
        </mxCell>
        <mxCell id="GQg6v6xFDtIEAacWqSrP-7" value="engine-srv" style="rounded=0;whiteSpace=wrap;html=1;" vertex="1" parent="1">
          <mxGeometry x="260" y="170" width="120" height="60" as="geometry" />
        </mxCell>
        <mxCell id="GQg6v6xFDtIEAacWqSrP-13" style="edgeStyle=orthogonalEdgeStyle;rounded=0;orthogonalLoop=1;jettySize=auto;html=1;entryX=0.583;entryY=0.983;entryDx=0;entryDy=0;entryPerimeter=0;" edge="1" parent="1" source="GQg6v6xFDtIEAacWqSrP-8" target="GQg6v6xFDtIEAacWqSrP-1">
          <mxGeometry relative="1" as="geometry" />
        </mxCell>
        <mxCell id="GQg6v6xFDtIEAacWqSrP-8" value="&lt;div&gt;usr-db&lt;/div&gt;" style="shape=cylinder3;whiteSpace=wrap;html=1;boundedLbl=1;backgroundOutline=1;size=15;" vertex="1" parent="1">
          <mxGeometry x="440" y="410" width="60" height="80" as="geometry" />
        </mxCell>
        <mxCell id="GQg6v6xFDtIEAacWqSrP-17" style="edgeStyle=orthogonalEdgeStyle;rounded=0;orthogonalLoop=1;jettySize=auto;html=1;entryX=1;entryY=0.5;entryDx=0;entryDy=0;" edge="1" parent="1" source="GQg6v6xFDtIEAacWqSrP-16" target="GQg6v6xFDtIEAacWqSrP-7">
          <mxGeometry relative="1" as="geometry" />
        </mxCell>
        <mxCell id="GQg6v6xFDtIEAacWqSrP-21" value="kafka" style="edgeLabel;html=1;align=center;verticalAlign=middle;resizable=0;points=[];" vertex="1" connectable="0" parent="GQg6v6xFDtIEAacWqSrP-17">
          <mxGeometry x="-0.1467" relative="1" as="geometry">
            <mxPoint as="offset" />
          </mxGeometry>
        </mxCell>
        <mxCell id="GQg6v6xFDtIEAacWqSrP-23" style="edgeStyle=orthogonalEdgeStyle;rounded=0;orthogonalLoop=1;jettySize=auto;html=1;" edge="1" parent="1" source="GQg6v6xFDtIEAacWqSrP-16" target="GQg6v6xFDtIEAacWqSrP-22">
          <mxGeometry relative="1" as="geometry" />
        </mxCell>
        <mxCell id="GQg6v6xFDtIEAacWqSrP-16" value="data-persistence-srv" style="rounded=0;whiteSpace=wrap;html=1;" vertex="1" parent="1">
          <mxGeometry x="530" y="170" width="120" height="60" as="geometry" />
        </mxCell>
        <mxCell id="GQg6v6xFDtIEAacWqSrP-24" style="edgeStyle=orthogonalEdgeStyle;rounded=0;orthogonalLoop=1;jettySize=auto;html=1;entryX=1;entryY=0.5;entryDx=0;entryDy=0;" edge="1" parent="1" source="GQg6v6xFDtIEAacWqSrP-22" target="GQg6v6xFDtIEAacWqSrP-16">
          <mxGeometry relative="1" as="geometry" />
        </mxCell>
        <mxCell id="GQg6v6xFDtIEAacWqSrP-22" value="data" style="shape=cylinder3;whiteSpace=wrap;html=1;boundedLbl=1;backgroundOutline=1;size=15;" vertex="1" parent="1">
          <mxGeometry x="740" y="160" width="60" height="80" as="geometry" />
        </mxCell>
        <mxCell id="GQg6v6xFDtIEAacWqSrP-26" style="edgeStyle=orthogonalEdgeStyle;rounded=0;orthogonalLoop=1;jettySize=auto;html=1;entryX=0.5;entryY=0;entryDx=0;entryDy=0;" edge="1" parent="1" source="GQg6v6xFDtIEAacWqSrP-25" target="GQg6v6xFDtIEAacWqSrP-16">
          <mxGeometry relative="1" as="geometry" />
        </mxCell>
        <mxCell id="GQg6v6xFDtIEAacWqSrP-29" value="as library" style="edgeLabel;html=1;align=center;verticalAlign=middle;resizable=0;points=[];" vertex="1" connectable="0" parent="GQg6v6xFDtIEAacWqSrP-26">
          <mxGeometry x="-0.2392" relative="1" as="geometry">
            <mxPoint as="offset" />
          </mxGeometry>
        </mxCell>
        <mxCell id="GQg6v6xFDtIEAacWqSrP-27" style="edgeStyle=orthogonalEdgeStyle;rounded=0;orthogonalLoop=1;jettySize=auto;html=1;entryX=0.5;entryY=0;entryDx=0;entryDy=0;" edge="1" parent="1" source="GQg6v6xFDtIEAacWqSrP-25" target="GQg6v6xFDtIEAacWqSrP-7">
          <mxGeometry relative="1" as="geometry" />
        </mxCell>
        <mxCell id="GQg6v6xFDtIEAacWqSrP-28" style="edgeStyle=orthogonalEdgeStyle;rounded=0;orthogonalLoop=1;jettySize=auto;html=1;entryX=0;entryY=0.5;entryDx=0;entryDy=0;" edge="1" parent="1" source="GQg6v6xFDtIEAacWqSrP-25" target="GQg6v6xFDtIEAacWqSrP-1">
          <mxGeometry relative="1" as="geometry" />
        </mxCell>
        <mxCell id="GQg6v6xFDtIEAacWqSrP-25" value="&lt;div&gt;common-srv&lt;/div&gt;" style="rounded=0;whiteSpace=wrap;html=1;" vertex="1" parent="1">
          <mxGeometry x="40" y="60" width="120" height="60" as="geometry" />
        </mxCell>
      </root>
    </mxGraphModel>
  </diagram>
</mxfile>
